/* XPM */
static char *xpm_data[] = {
"64 64 2 1",
"  c #404040",
". c #A0A0A0",
"........        ........        ........        ........        ",
"........        ........        ........        ........        ",
"........        ........        ........        ........        ",
"........        ........        ........        ........        ",
"........        ........        ........        ........        ",
"........        ........        ........        ........        ",
"........        ........        ........        ........        ",
"........        ........        ........        ........        ",
"        ........        ........        ........        ........",
"        ........        ........        ........        ........",
"        ........        ........        ........        ........",
"        ........        ........        ........        ........",
"        ........        ........        ........        ........",
"        ........        ........        ........        ........",
"        ........        ........        ........        ........",
"        ........        ........        ........        ........",
"........        ........        ........        ........        ",
"........        ........        ........        ........        ",
"........        ........        ........        ........        ",
"........        ........        ........        ........        ",
"........        ........        ........        ........        ",
"........        ........        ........        ........        ",
"........        ........        ........        ........        ",
"........        ........        ........        ........        ",
"        ........        ........        ........        ........",
"        ........        ........        ........        ........",
"        ........        ........        ........        ........",
"        ........        ........        ........        ........",
"        ........        ........        ........        ........",
"        ........        ........        ........        ........",
"        ........        ........        ........        ........",
"        ........        ........        ........        ........",
"........        ........        ........        ........        ",
"........        ........        ........        ........        ",
"........        ........        ........        ........        ",
"........        ........        ........        ........        ",
"........        ........        ........        ........        ",
"........        ........        ........        ........        ",
"........        ........        ........        ........        ",
"........        ........        ........        ........        ",
"        ........        ........        ........        ........",
"        ........        ........        ........        ........",
"        ........        ........        ........        ........",
"        ........        ........        ........        ........",
"        ........        ........        ........        ........",
"        ........        ........        ........        ........",
"        ........        ........        ........        ........",
"        ........        ........        ........        ........",
"........        ........        ........        ........        ",
"........        ........        ........        ........        ",
"........        ........        ........        ........        ",
"........        ........        ........        ........        ",
"........        ........        ........        ........        ",
"........        ........        ........        ........        ",
"........        ........        ........        ........        ",
"........        ........        ........        ........        ",
"        ........        ........        ........        ........",
"        ........        ........        ........        ........",
"        ........        ........        ........        ........",
"        ........        ........        ........        ........",
"        ........        ........        ........        ........",
"        ........        ........        ........        ........",
"        ........        ........        ........        ........",
"        ........        ........        ........        ........",
};
